<svg display="none" xmlns="http://www.w3.org/2000/svg">

   <!-- wa -->
   <symbol id="whatsapp" viewBox="0 0 85 85">
      <svg>
         <g>
            <path d="M42.5 0C19.0645 0 0 19.0645 0 42.5C0 50.4949 2.22144 58.2561 6.43548 64.9956C4.75673 70.8769 1.72452 82.0021 1.69183 82.1182C1.5349 82.6936 1.70327 83.3082 2.13317 83.7217C2.56308 84.1353 3.18423 84.2824 3.74981 84.1091L20.5962 78.9274C27.1951 82.9028 34.7519 85 42.5 85C65.9355 85 85 65.9355 85 42.5C85 19.0645 65.9355 0 42.5 0ZM42.5 81.7308C35.1132 81.7308 27.9176 79.6663 21.6897 75.7628C21.4265 75.5977 21.1241 75.5143 20.8217 75.5143C20.6599 75.5143 20.4981 75.5388 20.3412 75.5863L5.63125 80.1141C6.71173 76.1698 8.65365 69.1148 9.7799 65.1901C9.91067 64.7357 9.83712 64.2453 9.58048 63.8481C5.45144 57.4943 3.26923 50.1124 3.26923 42.5C3.26923 20.8691 20.8691 3.26923 42.5 3.26923C64.1309 3.26923 81.7308 20.8691 81.7308 42.5C81.7308 64.1309 64.1309 81.7308 42.5 81.7308Z"/>
            <path d="M70.2642 52.5136C67.2467 50.8381 64.6771 49.1577 62.8022 47.9317C61.3703 46.9967 60.3356 46.3216 59.5771 45.9408C57.457 44.8832 55.8502 45.6302 55.2389 46.2481C55.162 46.3249 55.0934 46.4083 55.0345 46.4965C52.8327 49.8001 49.9574 52.9598 49.1156 53.1298C48.143 52.9778 43.5906 50.3902 39.066 46.6224C34.4465 42.7729 31.5402 39.0868 31.1136 36.5761C34.0771 33.5259 35.1445 31.6068 35.1445 29.423C35.1445 27.1721 29.8941 17.7747 28.9444 16.825C27.9914 15.8737 25.8452 15.7249 22.5645 16.3787C22.249 16.4425 21.9581 16.5978 21.7292 16.825C21.332 17.2222 12.0376 26.6981 16.4543 38.1829C21.3026 50.7874 33.7469 65.4385 49.6125 67.8185C51.4155 68.0882 53.1057 68.2222 54.688 68.2222C64.0216 68.2222 69.5303 63.526 71.0815 54.2103C71.1976 53.5287 70.869 52.8487 70.2642 52.5136ZM50.098 64.5852C33.3203 62.0695 22.7525 45.4471 19.5062 37.0092C16.286 28.64 22.2245 21.178 23.7153 19.4911C24.9282 19.2851 26.2048 19.1985 26.7377 19.2818C27.8509 20.8298 31.7053 28.112 31.8753 29.423C31.8753 30.2812 31.5958 31.4761 28.2677 34.8058C27.9604 35.1114 27.7888 35.5266 27.7888 35.9614C27.7888 44.5203 45.8414 56.3941 49.0388 56.3941C51.8192 56.3941 55.4448 51.7208 57.5093 48.6755C57.6287 48.6804 57.8297 48.7213 58.1158 48.8651C58.7042 49.161 59.7242 49.8263 61.014 50.6697C62.7172 51.7829 64.9795 53.2606 67.6505 54.7922C66.4376 60.6278 63.0474 66.5304 50.098 64.5852Z"/>
         </g>
      </svg>
   </symbol>
</svg>