<svg width="71" height="48" fill="none" xmlns="http://www.w3.org/2000/svg"><path d="M67.359 0H3.64A3.652 3.652 0 000 3.641v40.051a3.652 3.652 0 003.641 3.641H67.36a3.652 3.652 0 003.64-3.64V3.64A3.652 3.652 0 0067.359 0zm-1.367 2.73l-28.398 21.3c-.51.39-1.294.633-2.094.629-.8.004-1.584-.24-2.095-.628L5.007 2.73h60.985zM50.823 25.437l15.474 19.116c.016.019.035.033.052.05H4.65c.017-.017.036-.031.051-.05l15.475-19.116a1.365 1.365 0 00-2.123-1.718L2.73 42.646V4.437l29.037 21.778c1.091.813 2.42 1.17 3.732 1.174 1.31-.002 2.64-.36 3.732-1.174L68.269 4.437v38.21l-15.323-18.93a1.365 1.365 0 10-2.123 1.72z" fill="#F7793E"/></svg>