<svg width="19" height="34" fill="none" xmlns="http://www.w3.org/2000/svg"><path d="M1.085 0c.26-.001.509.093.693.262L17.994 14.77c.318.285.571.626.744 1.003a2.859 2.859 0 010 2.385 3.053 3.053 0 01-.744 1.002L1.778 33.651a.986.986 0 01-.325.247 1.06 1.06 0 01-1.171-.18.92.92 0 01-.223-.33.864.864 0 01.065-.76.95.95 0 01.275-.295l16.204-14.509c.125-.111.223-.245.29-.392a1.121 1.121 0 000-.933 1.196 1.196 0 00-.29-.392L.4 1.597a.914.914 0 01-.283-.472.867.867 0 01.05-.54A.946.946 0 01.53.163C.693.059.886.002 1.085 0z" fill="#F7793E"/></svg>