<svg width="19" height="34" fill="none" xmlns="http://www.w3.org/2000/svg"><path d="M17.915 0a1.02 1.02 0 00-.693.262L1.006 14.77a3.051 3.051 0 00-.744 1.003 2.859 2.859 0 000 2.385c.173.377.426.718.744 1.002l16.216 14.491c.088.103.2.187.325.247a1.06 1.06 0 001.171-.18.92.92 0 00.223-.33.865.865 0 00-.065-.76.95.95 0 00-.275-.295L2.397 17.824a1.196 1.196 0 01-.29-.392 1.12 1.12 0 010-.933c.067-.148.165-.281.29-.392L18.6 1.597a.914.914 0 00.283-.472.867.867 0 00-.05-.54.946.946 0 00-.363-.422A1.057 1.057 0 0017.915 0z" fill="#F7793E"/></svg>