<svg width="115" height="43" fill="none" xmlns="http://www.w3.org/2000/svg"><path d="M0 40.545c-.005-.587.313-1.151.885-1.57L49.959 2.278c.961-.72 2.114-1.293 3.39-1.684A13.816 13.816 0 0157.383 0c1.386 0 2.758.202 4.034.593 1.275.391 2.428.964 3.39 1.684l49.014 36.699c.348.2.633.451.835.736.203.286.319.6.34.92.022.32-.051.64-.215.939a2.371 2.371 0 01-.732.791c-.319.224-.7.395-1.119.504a4.268 4.268 0 01-1.308.127 4.074 4.074 0 01-1.264-.273 3.07 3.07 0 01-.996-.623L60.288 5.423a4.346 4.346 0 00-1.327-.657 5.419 5.419 0 00-1.578-.232c-.542 0-1.079.08-1.578.232-.499.152-.95.376-1.327.657L5.404 42.096c-.434.324-.99.546-1.6.64a4.292 4.292 0 01-1.823-.11c-.58-.166-1.077-.453-1.43-.823-.352-.37-.544-.809-.55-1.258z" fill="#fff"/></svg>