<svg width="26" height="52" fill="none" xmlns="http://www.w3.org/2000/svg"><path d="M24.515 0a1.315 1.315 0 00-.948.4L1.377 22.59a4.669 4.669 0 00-1.018 1.533 4.809 4.809 0 000 3.648 4.668 4.668 0 001.018 1.533l22.19 22.163c.12.157.273.286.445.377a1.328 1.328 0 001.602-.274c.135-.144.24-.317.305-.506a1.466 1.466 0 00-.088-1.163 1.403 1.403 0 00-.377-.45L3.28 27.26a1.83 1.83 0 01-.398-.6 1.885 1.885 0 010-1.427 1.83 1.83 0 01.398-.6l22.174-22.19c.195-.197.33-.448.387-.724a1.471 1.471 0 00-.067-.824 1.414 1.414 0 00-.498-.647 1.337 1.337 0 00-.76-.249z" fill="#fff"/></svg>