<svg width="26" height="52" fill="none" xmlns="http://www.w3.org/2000/svg"><path d="M1.485 0c.354-.002.696.142.948.4l22.19 22.19c.435.435.782.956 1.018 1.533a4.807 4.807 0 010 3.648 4.667 4.667 0 01-1.018 1.533L2.433 51.467a1.377 1.377 0 01-.445.377 1.327 1.327 0 01-1.602-.274 1.425 1.425 0 01-.305-.506 1.465 1.465 0 01.088-1.163c.094-.176.222-.33.377-.45L22.72 27.26c.17-.17.306-.375.398-.6a1.885 1.885 0 000-1.427 1.828 1.828 0 00-.398-.6L.546 2.444A1.437 1.437 0 01.16 1.72 1.471 1.471 0 01.226.896C.326.634.5.409.724.249c.224-.16.489-.246.76-.249z" fill="#fff"/></svg>